<svg width="21" height="20" viewBox="0 0 21 20" fill="none" xmlns="http://www.w3.org/2000/svg">
<g clip-path="url(#clip0_153_23925)">
<path d="M4 9.27783H6.16667C6.54976 9.27783 6.91716 9.43001 7.18804 9.7009C7.45893 9.97179 7.61111 10.3392 7.61111 10.7223V12.8889C7.61111 13.272 7.45893 13.6394 7.18804 13.9103C6.91716 14.1812 6.54976 14.3334 6.16667 14.3334H5.44444C5.06135 14.3334 4.69395 14.1812 4.42307 13.9103C4.15218 13.6394 4 13.272 4 12.8889V9.27783ZM4 9.27783C4 8.42424 4.16813 7.57901 4.49478 6.79039C4.82144 6.00177 5.30022 5.28522 5.90381 4.68164C6.50739 4.07806 7.22394 3.59927 8.01256 3.27262C8.80117 2.94596 9.64641 2.77783 10.5 2.77783C11.3536 2.77783 12.1988 2.94596 12.9874 3.27262C13.7761 3.59927 14.4926 4.07806 15.0962 4.68164C15.6998 5.28522 16.1786 6.00177 16.5052 6.79039C16.8319 7.57901 17 8.42424 17 9.27783M17 9.27783V12.8889C17 13.272 16.8478 13.6394 16.5769 13.9103C16.306 14.1812 15.9386 14.3334 15.5556 14.3334H14.8333C14.4502 14.3334 14.0828 14.1812 13.812 13.9103C13.5411 13.6394 13.3889 13.272 13.3889 12.8889V10.7223C13.3889 10.3392 13.5411 9.97179 13.812 9.7009C14.0828 9.43001 14.4502 9.27783 14.8333 9.27783H17Z" stroke="#1C1D21" stroke-width="1.6" stroke-linecap="round" stroke-linejoin="round"/>
<path d="M17 12.8887V14.3331C17 15.0993 16.6956 15.8341 16.1539 16.3759C15.6121 16.9176 14.8773 17.222 14.1111 17.222H10.5" stroke="#1C1D21" stroke-width="1.6" stroke-linecap="round" stroke-linejoin="round"/>
</g>
<defs>
<clipPath id="clip0_153_23925">
<rect width="20" height="20" fill="white" transform="translate(0.5)"/>
</clipPath>
</defs>
</svg>
