<svg width="19" height="18" viewBox="0 0 19 18" fill="none" xmlns="http://www.w3.org/2000/svg">
<path d="M9.854 1.5C11.73 3.55376 12.7961 6.21903 12.854 9C12.7961 11.781 11.73 14.4462 9.854 16.5M9.854 1.5C7.97804 3.55376 6.91194 6.21903 6.854 9C6.91194 11.781 7.97804 14.4462 9.854 16.5M9.854 1.5C5.71187 1.5 2.354 4.85786 2.354 9C2.354 13.1421 5.71187 16.5 9.854 16.5M9.854 1.5C13.9961 1.5 17.354 4.85786 17.354 9C17.354 13.1421 13.9961 16.5 9.854 16.5M2.72902 6.75H16.979M2.729 11.25H16.979" stroke="#1C1D21" stroke-width="1.4" stroke-linecap="round" stroke-linejoin="round"/>
</svg>
