<svg width="83" height="24" viewBox="0 0 83 24" fill="none" xmlns="http://www.w3.org/2000/svg">
<path d="M70.208 24H68.408V20.638H69.457C70.0425 20.6418 70.6162 20.4731 71.1065 20.153C71.5967 19.8329 71.9819 19.3756 72.214 18.838L66.041 7.522H70.115L74.223 15.01L78.33 7.522H82.438L75.663 20.022C75.0728 21.0861 74.3128 22.0468 73.413 22.866H73.354L73.114 23.049C72.2727 23.6652 71.2568 23.997 70.214 23.996L70.208 24ZM40.288 19.782C38.9472 19.7683 37.6667 19.2227 36.728 18.2653C35.7893 17.3078 35.2692 16.0168 35.282 14.676V12.628C35.2689 11.2872 35.789 9.99616 36.7278 9.0388C37.6666 8.08144 38.9472 7.5362 40.288 7.523H44.936C46.2757 7.53804 47.5546 8.08406 48.492 9.04119C49.4295 9.99832 49.9488 11.2883 49.936 12.628V14.676C49.9488 16.0158 49.4295 17.3059 48.4921 18.2632C47.5547 19.2205 46.2757 19.7667 44.936 19.782H40.288ZM38.878 12.687V14.613C38.8748 15.0627 39.0499 15.4953 39.3649 15.8162C39.68 16.137 40.1093 16.32 40.559 16.325H44.694C45.1433 16.3195 45.5721 16.1363 45.8868 15.8155C46.2014 15.4946 46.3762 15.0623 46.373 14.613V12.688C46.3762 12.2387 46.2014 11.8064 45.8868 11.4855C45.5721 11.1647 45.1433 10.9815 44.694 10.976H40.559C40.1093 10.981 39.68 11.164 39.3649 11.4848C39.0499 11.8057 38.8748 12.2373 38.878 12.687ZM15.408 19.782V12.536C15.4098 12.3372 15.3725 12.1399 15.2981 11.9555C15.2237 11.7711 15.1138 11.6032 14.9745 11.4613C14.8352 11.3194 14.6693 11.2064 14.4863 11.1286C14.3033 11.0508 14.1068 11.0098 13.908 11.008H9.594C9.39518 11.0098 9.19866 11.0508 9.01567 11.1286C8.83269 11.2064 8.66681 11.3194 8.52752 11.4613C8.38823 11.6032 8.27826 11.7711 8.20387 11.9555C8.12949 12.1399 8.09215 12.3372 8.094 12.536V19.783H4.5V7.522H8.1V8.01C8.98866 7.66847 9.93517 7.50274 10.887 7.522H14C14.6467 7.49615 15.2919 7.60114 15.8971 7.83066C16.5022 8.06019 17.0548 8.40952 17.5217 8.85773C17.9886 9.30595 18.3602 9.84381 18.6142 10.4391C18.8682 11.0344 18.9994 11.6748 19 12.322V19.782H15.408ZM60.283 19.782H55.876C55.212 19.7755 54.5558 19.6382 53.9449 19.3781C53.334 19.1179 52.7803 18.74 52.3154 18.2658C51.8506 17.7917 51.4837 17.2306 51.2357 16.6147C50.9877 15.9987 50.8634 15.34 50.87 14.676V12.628C50.8569 11.2872 51.377 9.99616 52.3158 9.0388C53.2546 8.08144 54.5352 7.5362 55.876 7.523H60.253C60.7408 7.52157 61.2261 7.59268 61.693 7.734V0H65.293V19.78H61.722V19.568C61.2622 19.7076 60.7845 19.779 60.304 19.78L60.283 19.782ZM54.438 12.69V14.59C54.4353 15.039 54.6104 15.4708 54.9249 15.7912C55.2395 16.1115 55.668 16.2945 56.117 16.3H60.017C60.4661 16.2942 60.8947 16.1109 61.2091 15.7901C61.5235 15.4693 61.6982 15.0372 61.695 14.588L61.724 12.688C61.7272 12.2387 61.5524 11.8064 61.2378 11.4855C60.9231 11.1647 60.4943 10.9815 60.045 10.976H56.117C55.6677 10.9815 55.2389 11.1647 54.9242 11.4855C54.6096 11.8064 54.4348 12.2387 54.438 12.688V12.69ZM19.938 19.782V0H28.63C29.9396 0.0117428 31.1935 0.53149 32.1273 1.44968C33.0612 2.36788 33.6021 3.61279 33.636 4.922V5.441C33.6393 6.15313 33.5069 6.85938 33.246 7.522C33.0078 8.17319 32.5921 8.74473 32.046 9.172L32.225 9.263C32.7212 9.58568 33.1488 10.0031 33.4834 10.4913C33.818 10.9794 34.053 11.5288 34.175 12.108C34.2679 12.4685 34.3281 12.8367 34.355 13.208V14.86C34.3426 16.176 33.8085 17.4334 32.8699 18.356C31.9314 19.2786 30.6651 19.7911 29.349 19.781L19.938 19.782ZM23.5 16.3H28.265C28.5951 16.297 28.9214 16.2289 29.2251 16.0997C29.5289 15.9705 29.8042 15.7826 30.0353 15.5469C30.2664 15.3112 30.4487 15.0322 30.5718 14.7259C30.695 14.4196 30.7566 14.0921 30.753 13.762L30.723 13.549C30.7264 13.219 30.6648 12.8916 30.5416 12.5854C30.4183 12.2792 30.236 12.0004 30.0049 11.7647C29.7738 11.5291 29.4986 11.3414 29.1949 11.2122C28.8912 11.083 28.565 11.015 28.235 11.012H23.5V16.3ZM23.5 7.527H28.055C28.5902 7.52302 29.1019 7.3066 29.4775 6.92533C29.8532 6.54407 30.062 6.02921 30.058 5.494C30.054 4.95879 29.8376 4.44709 29.4563 4.07145C29.0751 3.69582 28.5602 3.48702 28.025 3.491H23.5V7.527ZM0 19.78V0H3.6V19.78H0Z" fill="white"/>
</svg>
