<svg width="123" height="23" viewBox="0 0 123 23" fill="none" xmlns="http://www.w3.org/2000/svg">
<path d="M3.19538 15.2882H10.4434V17.4002H0.963379V0.600202H3.19538V15.2882Z" fill="#1C1D21"/>
<path d="M21.6454 15.8882C20.4134 17.1042 18.9174 17.7122 17.1574 17.7122C15.3974 17.7122 13.9014 17.1042 12.6694 15.8882C11.4534 14.6722 10.8454 13.1762 10.8454 11.4002C10.8454 9.6242 11.4534 8.1282 12.6694 6.9122C13.9014 5.6962 15.3974 5.0882 17.1574 5.0882C18.9174 5.0882 20.4134 5.6962 21.6454 6.9122C22.8774 8.1282 23.4934 9.6242 23.4934 11.4002C23.4934 13.1762 22.8774 14.6722 21.6454 15.8882ZM17.1574 15.6722C18.3574 15.6722 19.3654 15.2642 20.1814 14.4482C20.9974 13.6322 21.4054 12.6162 21.4054 11.4002C21.4054 10.1842 20.9974 9.1682 20.1814 8.3522C19.3654 7.5362 18.3574 7.1282 17.1574 7.1282C15.9734 7.1282 14.9734 7.5362 14.1574 8.3522C13.3414 9.1682 12.9334 10.1842 12.9334 11.4002C12.9334 12.6162 13.3414 13.6322 14.1574 14.4482C14.9734 15.2642 15.9734 15.6722 17.1574 15.6722Z" fill="#1C1D21"/>
<path d="M35.6029 15.8882C34.3709 17.1042 32.8749 17.7122 31.1149 17.7122C29.3549 17.7122 27.8589 17.1042 26.6269 15.8882C25.4109 14.6722 24.8029 13.1762 24.8029 11.4002C24.8029 9.6242 25.4109 8.1282 26.6269 6.9122C27.8589 5.6962 29.3549 5.0882 31.1149 5.0882C32.8749 5.0882 34.3709 5.6962 35.6029 6.9122C36.8349 8.1282 37.4509 9.6242 37.4509 11.4002C37.4509 13.1762 36.8349 14.6722 35.6029 15.8882ZM31.1149 15.6722C32.3149 15.6722 33.3229 15.2642 34.1389 14.4482C34.9549 13.6322 35.3629 12.6162 35.3629 11.4002C35.3629 10.1842 34.9549 9.1682 34.1389 8.3522C33.3229 7.5362 32.3149 7.1282 31.1149 7.1282C29.9309 7.1282 28.9309 7.5362 28.1149 8.3522C27.2989 9.1682 26.8909 10.1842 26.8909 11.4002C26.8909 12.6162 27.2989 13.6322 28.1149 14.4482C28.9309 15.2642 29.9309 15.6722 31.1149 15.6722Z" fill="#1C1D21"/>
<path d="M49.5844 17.4002H46.9924L41.5204 11.7122V17.4002H39.4324V0.600202H41.5204V10.7042L46.7044 5.4002H49.3924L43.6564 11.2082L49.5844 17.4002Z" fill="#1C1D21"/>
<path d="M52.1021 3.2162C51.7021 3.2162 51.3661 3.0802 51.0941 2.8082C50.8221 2.5362 50.6861 2.2082 50.6861 1.8242C50.6861 1.4402 50.8221 1.1122 51.0941 0.840202C51.3661 0.552203 51.7021 0.408203 52.1021 0.408203C52.4861 0.408203 52.8141 0.552203 53.0861 0.840202C53.3581 1.1122 53.4941 1.4402 53.4941 1.8242C53.4941 2.2082 53.3581 2.5362 53.0861 2.8082C52.8141 3.0802 52.4861 3.2162 52.1021 3.2162ZM51.0461 17.4002V5.4002H53.1341V17.4002H51.0461Z" fill="#1C1D21"/>
<path d="M61.8156 5.0882C63.2236 5.0882 64.3516 5.5362 65.1996 6.4322C66.0476 7.3122 66.4716 8.5122 66.4716 10.0322V17.4002H64.3836V10.1522C64.3836 9.1762 64.1196 8.4242 63.5916 7.8962C63.0636 7.3522 62.3356 7.0802 61.4076 7.0802C60.3676 7.0802 59.5276 7.4082 58.8876 8.0642C58.2476 8.7042 57.9276 9.6962 57.9276 11.0402V17.4002H55.8396V5.4002H57.9276V7.1282C58.7756 5.7682 60.0716 5.0882 61.8156 5.0882Z" fill="#1C1D21"/>
<path d="M78.7224 8.6882C79.4904 9.0562 80.0984 9.5842 80.5464 10.2722C81.0104 10.9602 81.2424 11.7522 81.2424 12.6482C81.2424 13.9922 80.7704 15.1202 79.8264 16.0322C78.8824 16.9442 77.7304 17.4002 76.3704 17.4002H69.1224V0.600202H75.8424C77.1544 0.600202 78.2664 1.0402 79.1784 1.9202C80.0904 2.8002 80.5464 3.8882 80.5464 5.1842C80.5464 6.6722 79.9384 7.8402 78.7224 8.6882ZM75.8424 2.6882H71.3544V7.8242H75.8424C76.5464 7.8242 77.1384 7.5762 77.6184 7.0802C78.0984 6.5842 78.3384 5.9762 78.3384 5.2562C78.3384 4.5522 78.0904 3.9522 77.5944 3.4562C77.1144 2.9442 76.5304 2.6882 75.8424 2.6882ZM76.3704 15.3122C77.1224 15.3122 77.7544 15.0482 78.2664 14.5202C78.7784 13.9922 79.0344 13.3442 79.0344 12.5762C79.0344 11.8242 78.7704 11.1842 78.2424 10.6562C77.7304 10.1282 77.1064 9.8642 76.3704 9.8642H71.3544V15.3122H76.3704Z" fill="#1C1D21"/>
<path d="M93.3904 15.8882C92.1584 17.1042 90.6624 17.7122 88.9024 17.7122C87.1424 17.7122 85.6464 17.1042 84.4144 15.8882C83.1984 14.6722 82.5904 13.1762 82.5904 11.4002C82.5904 9.6242 83.1984 8.1282 84.4144 6.9122C85.6464 5.6962 87.1424 5.0882 88.9024 5.0882C90.6624 5.0882 92.1584 5.6962 93.3904 6.9122C94.6224 8.1282 95.2384 9.6242 95.2384 11.4002C95.2384 13.1762 94.6224 14.6722 93.3904 15.8882ZM88.9024 15.6722C90.1024 15.6722 91.1104 15.2642 91.9264 14.4482C92.7424 13.6322 93.1504 12.6162 93.1504 11.4002C93.1504 10.1842 92.7424 9.1682 91.9264 8.3522C91.1104 7.5362 90.1024 7.1282 88.9024 7.1282C87.7184 7.1282 86.7184 7.5362 85.9024 8.3522C85.0864 9.1682 84.6784 10.1842 84.6784 11.4002C84.6784 12.6162 85.0864 13.6322 85.9024 14.4482C86.7184 15.2642 87.7184 15.6722 88.9024 15.6722Z" fill="#1C1D21"/>
<path d="M107.156 0.600202H109.244V17.4002H107.156V15.3362C106.116 16.9202 104.604 17.7122 102.62 17.7122C100.94 17.7122 99.5079 17.1042 98.3239 15.8882C97.1399 14.6562 96.5479 13.1602 96.5479 11.4002C96.5479 9.6402 97.1399 8.1522 98.3239 6.9362C99.5079 5.7042 100.94 5.0882 102.62 5.0882C104.604 5.0882 106.116 5.8802 107.156 7.4642V0.600202ZM102.884 15.6962C104.1 15.6962 105.116 15.2882 105.932 14.4722C106.748 13.6402 107.156 12.6162 107.156 11.4002C107.156 10.1842 106.748 9.1682 105.932 8.3522C105.116 7.5202 104.1 7.1042 102.884 7.1042C101.684 7.1042 100.676 7.5202 99.8599 8.3522C99.0439 9.1682 98.6359 10.1842 98.6359 11.4002C98.6359 12.6162 99.0439 13.6402 99.8599 14.4722C100.676 15.2882 101.684 15.6962 102.884 15.6962Z" fill="#1C1D21"/>
<path d="M120.303 5.4002H122.535L117.639 18.1442C117.127 19.5042 116.407 20.5362 115.479 21.2402C114.567 21.9602 113.511 22.2802 112.311 22.2002V20.2562C113.783 20.3682 114.863 19.5522 115.551 17.8082L115.767 17.3522L110.535 5.4002H112.767L116.847 14.8082L120.303 5.4002Z" fill="#1C1D21"/>
</svg>
