<svg width="15" height="14" viewBox="0 0 15 14" fill="none" xmlns="http://www.w3.org/2000/svg">
<path d="M8.08337 1.74997L9.09497 4.38014C9.25948 4.80786 9.34173 5.02172 9.46964 5.2016C9.58301 5.36104 9.7223 5.50033 9.88173 5.6137C10.0616 5.74161 10.2755 5.82386 10.7032 5.98837L13.3334 6.99997L10.7032 8.01157C10.2755 8.17608 10.0616 8.25834 9.88173 8.38625C9.7223 8.49961 9.58301 8.63891 9.46964 8.79834C9.34173 8.97823 9.25948 9.19208 9.09497 9.6198L8.08337 12.25L7.07176 9.6198C6.90726 9.19208 6.825 8.97822 6.69709 8.79834C6.58373 8.63891 6.44443 8.49961 6.285 8.38625C6.10511 8.25834 5.89125 8.17608 5.46354 8.01158L2.83337 6.99997L5.46353 5.98837C5.89125 5.82386 6.10511 5.74161 6.285 5.6137C6.44443 5.50033 6.58373 5.36104 6.69709 5.2016C6.825 5.02172 6.90726 4.80786 7.07176 4.38014L8.08337 1.74997Z" fill="url(#paint0_linear_153_24380)"/>
<path fill-rule="evenodd" clip-rule="evenodd" d="M3.12503 0.616638C3.42879 0.616638 3.67503 0.862882 3.67503 1.16664V2.07497H4.58337C4.88712 2.07497 5.13337 2.32121 5.13337 2.62497C5.13337 2.92873 4.88712 3.17497 4.58337 3.17497H3.67503V4.0833C3.67503 4.38706 3.42879 4.63331 3.12503 4.63331C2.82128 4.63331 2.57503 4.38706 2.57503 4.0833V3.17497H1.6667C1.36294 3.17497 1.1167 2.92873 1.1167 2.62497C1.1167 2.32121 1.36294 2.07497 1.6667 2.07497H2.57503V1.16664C2.57503 0.862882 2.82128 0.616638 3.12503 0.616638ZM8.08337 1.19997C8.31094 1.19997 8.51501 1.34013 8.59671 1.55253L9.60831 4.1827C9.78293 4.63672 9.83955 4.77273 9.91788 4.88288C9.99561 4.99221 10.0911 5.08772 10.2005 5.16546C10.3106 5.24379 10.4466 5.30041 10.9006 5.47503L13.5308 6.48663C13.7432 6.56833 13.8834 6.7724 13.8834 6.99997C13.8834 7.22755 13.7432 7.43162 13.5308 7.51331L10.9006 8.52491C10.4466 8.69954 10.3106 8.75616 10.2005 8.83448C10.0911 8.91222 9.99561 9.00773 9.91788 9.11706C9.83955 9.22721 9.78293 9.36322 9.60831 9.81724L8.59671 12.4474C8.51501 12.6598 8.31094 12.8 8.08337 12.8C7.85579 12.8 7.65172 12.6598 7.57003 12.4474L6.55842 9.81724C6.3838 9.36322 6.32718 9.22721 6.24886 9.11706C6.17112 9.00773 6.0756 8.91222 5.96628 8.83448C5.85612 8.75616 5.72011 8.69954 5.2661 8.52492L2.63593 7.51331C2.42352 7.43162 2.28337 7.22755 2.28337 6.99997C2.28337 6.7724 2.42352 6.56833 2.63593 6.48663L5.2661 5.47503C5.72011 5.30041 5.85612 5.24379 5.96628 5.16546C6.0756 5.08772 6.17112 4.99221 6.24886 4.88288C6.32718 4.77273 6.3838 4.63672 6.55842 4.1827L7.57003 1.55253C7.65172 1.34013 7.85579 1.19997 8.08337 1.19997ZM8.08337 3.28209L7.5851 4.57758C7.57762 4.59702 7.57025 4.61621 7.56298 4.63515C7.42009 5.00716 7.31423 5.2828 7.14533 5.52033C6.99633 5.72987 6.81326 5.91294 6.60372 6.06193C6.36619 6.23083 6.09055 6.3367 5.71853 6.47959C5.6996 6.48686 5.68042 6.49423 5.66097 6.50171L4.36549 6.99997L5.66097 7.49823C5.68042 7.50571 5.6996 7.51308 5.71854 7.52036C6.09055 7.66324 6.36619 7.76911 6.60372 7.93801C6.81326 8.087 6.99633 8.27008 7.14533 8.47962C7.31423 8.71715 7.4201 8.99279 7.56298 9.3648C7.57026 9.38374 7.57763 9.40292 7.5851 9.42236L8.08337 10.7178L8.58163 9.42236C8.58911 9.40292 8.59648 9.38374 8.60375 9.3648C8.74664 8.99279 8.85251 8.71715 9.0214 8.47962C9.1704 8.27008 9.35347 8.087 9.56301 7.93801C9.80054 7.76911 10.0762 7.66324 10.4482 7.52035C10.4671 7.51308 10.4863 7.50571 10.5058 7.49823L11.8012 6.99997L10.5058 6.50171C10.4863 6.49423 10.4671 6.48686 10.4482 6.47959C10.0762 6.3367 9.80054 6.23083 9.56301 6.06193C9.35347 5.91294 9.1704 5.72987 9.0214 5.52033C8.8525 5.28279 8.74663 5.00715 8.60374 4.63513C8.59647 4.6162 8.58911 4.59702 8.58163 4.57758L8.08337 3.28209ZM3.12503 9.36664C3.42879 9.36664 3.67503 9.61288 3.67503 9.91664V10.825H4.58337C4.88712 10.825 5.13337 11.0712 5.13337 11.375C5.13337 11.6787 4.88712 11.925 4.58337 11.925H3.67503V12.8333C3.67503 13.1371 3.42879 13.3833 3.12503 13.3833C2.82128 13.3833 2.57503 13.1371 2.57503 12.8333V11.925H1.6667C1.36294 11.925 1.1167 11.6787 1.1167 11.375C1.1167 11.0712 1.36294 10.825 1.6667 10.825H2.57503V9.91664C2.57503 9.61288 2.82128 9.36664 3.12503 9.36664Z" fill="url(#paint1_linear_153_24380)"/>
<defs>
<linearGradient id="paint0_linear_153_24380" x1="5.55548" y1="6.99997" x2="9.52733" y2="6.99997" gradientUnits="userSpaceOnUse">
<stop stop-color="#CB4D61"/>
<stop offset="1" stop-color="#8CB4FF"/>
</linearGradient>
<linearGradient id="paint1_linear_153_24380" x1="5.55548" y1="6.99997" x2="9.52733" y2="6.99997" gradientUnits="userSpaceOnUse">
<stop stop-color="#CB4D61"/>
<stop offset="1" stop-color="#8CB4FF"/>
</linearGradient>
</defs>
</svg>
