<svg width="24" height="5" viewBox="0 0 24 5" fill="none" xmlns="http://www.w3.org/2000/svg">
<path d="M0.814008 2.80398H2.17301V3.19998H0.395508V0.0499769H0.814008V2.80398Z" fill="white"/>
<path d="M4.27338 2.91648C4.04238 3.14448 3.76188 3.25848 3.43188 3.25848C3.10188 3.25848 2.82138 3.14448 2.59038 2.91648C2.36238 2.68848 2.24838 2.40798 2.24838 2.07498C2.24838 1.74198 2.36238 1.46148 2.59038 1.23348C2.82138 1.00548 3.10188 0.891477 3.43188 0.891477C3.76188 0.891477 4.04238 1.00548 4.27338 1.23348C4.50438 1.46148 4.61988 1.74198 4.61988 2.07498C4.61988 2.40798 4.50438 2.68848 4.27338 2.91648ZM3.43188 2.87598C3.65688 2.87598 3.84588 2.79948 3.99888 2.64648C4.15188 2.49348 4.22838 2.30298 4.22838 2.07498C4.22838 1.84698 4.15188 1.65648 3.99888 1.50348C3.84588 1.35048 3.65688 1.27398 3.43188 1.27398C3.20988 1.27398 3.02238 1.35048 2.86938 1.50348C2.71638 1.65648 2.63988 1.84698 2.63988 2.07498C2.63988 2.30298 2.71638 2.49348 2.86938 2.64648C3.02238 2.79948 3.20988 2.87598 3.43188 2.87598Z" fill="white"/>
<path d="M6.89041 2.91648C6.65941 3.14448 6.37891 3.25848 6.04891 3.25848C5.71891 3.25848 5.43841 3.14448 5.20741 2.91648C4.97941 2.68848 4.86541 2.40798 4.86541 2.07498C4.86541 1.74198 4.97941 1.46148 5.20741 1.23348C5.43841 1.00548 5.71891 0.891477 6.04891 0.891477C6.37891 0.891477 6.65941 1.00548 6.89041 1.23348C7.12141 1.46148 7.23691 1.74198 7.23691 2.07498C7.23691 2.40798 7.12141 2.68848 6.89041 2.91648ZM6.04891 2.87598C6.27391 2.87598 6.46291 2.79948 6.61591 2.64648C6.76891 2.49348 6.84541 2.30298 6.84541 2.07498C6.84541 1.84698 6.76891 1.65648 6.61591 1.50348C6.46291 1.35048 6.27391 1.27398 6.04891 1.27398C5.82691 1.27398 5.63941 1.35048 5.48641 1.50348C5.33341 1.65648 5.25691 1.84698 5.25691 2.07498C5.25691 2.30298 5.33341 2.49348 5.48641 2.64648C5.63941 2.79948 5.82691 2.87598 6.04891 2.87598Z" fill="white"/>
<path d="M9.51194 3.19998H9.02595L7.99995 2.13348V3.19998H7.60845V0.0499769H7.99995V1.94448L8.97194 0.949977H9.47595L8.40044 2.03898L9.51194 3.19998Z" fill="white"/>
<path d="M9.98402 0.540477C9.90902 0.540477 9.84602 0.514977 9.79502 0.463977C9.74402 0.412977 9.71852 0.351477 9.71852 0.279477C9.71852 0.207477 9.74402 0.145977 9.79502 0.0949768C9.84602 0.040977 9.90902 0.0139771 9.98402 0.0139771C10.056 0.0139771 10.1175 0.040977 10.1685 0.0949768C10.2195 0.145977 10.245 0.207477 10.245 0.279477C10.245 0.351477 10.2195 0.412977 10.1685 0.463977C10.1175 0.514977 10.056 0.540477 9.98402 0.540477ZM9.78602 3.19998V0.949977H10.1775V3.19998H9.78602Z" fill="white"/>
<path d="M11.8053 0.891477C12.0693 0.891477 12.2808 0.975477 12.4398 1.14348C12.5988 1.30848 12.6783 1.53348 12.6783 1.81848V3.19998H12.2868V1.84098C12.2868 1.65798 12.2373 1.51698 12.1383 1.41798C12.0393 1.31598 11.9028 1.26498 11.7288 1.26498C11.5338 1.26498 11.3763 1.32648 11.2563 1.44948C11.1363 1.56948 11.0763 1.75548 11.0763 2.00748V3.19998H10.6848V0.949977H11.0763V1.27398C11.2353 1.01898 11.4783 0.891477 11.8053 0.891477Z" fill="white"/>
<path d="M14.9753 1.56648C15.1193 1.63548 15.2333 1.73448 15.3173 1.86348C15.4043 1.99248 15.4478 2.14098 15.4478 2.30898C15.4478 2.56098 15.3593 2.77248 15.1823 2.94348C15.0053 3.11448 14.7893 3.19998 14.5343 3.19998H13.1753V0.0499769H14.4353C14.6813 0.0499769 14.8898 0.132477 15.0608 0.297477C15.2318 0.462477 15.3173 0.666477 15.3173 0.909477C15.3173 1.18848 15.2033 1.40748 14.9753 1.56648ZM14.4353 0.441477H13.5938V1.40448H14.4353C14.5673 1.40448 14.6783 1.35798 14.7683 1.26498C14.8583 1.17198 14.9033 1.05798 14.9033 0.922977C14.9033 0.790977 14.8568 0.678477 14.7638 0.585477C14.6738 0.489477 14.5643 0.441477 14.4353 0.441477ZM14.5343 2.80848C14.6753 2.80848 14.7938 2.75898 14.8898 2.65998C14.9858 2.56098 15.0338 2.43948 15.0338 2.29548C15.0338 2.15448 14.9843 2.03448 14.8853 1.93548C14.7893 1.83648 14.6723 1.78698 14.5343 1.78698H13.5938V2.80848H14.5343Z" fill="white"/>
<path d="M17.7256 2.91648C17.4946 3.14448 17.2141 3.25848 16.8841 3.25848C16.5541 3.25848 16.2736 3.14448 16.0426 2.91648C15.8146 2.68848 15.7006 2.40798 15.7006 2.07498C15.7006 1.74198 15.8146 1.46148 16.0426 1.23348C16.2736 1.00548 16.5541 0.891477 16.8841 0.891477C17.2141 0.891477 17.4946 1.00548 17.7256 1.23348C17.9566 1.46148 18.0721 1.74198 18.0721 2.07498C18.0721 2.40798 17.9566 2.68848 17.7256 2.91648ZM16.8841 2.87598C17.1091 2.87598 17.2981 2.79948 17.4511 2.64648C17.6041 2.49348 17.6806 2.30298 17.6806 2.07498C17.6806 1.84698 17.6041 1.65648 17.4511 1.50348C17.2981 1.35048 17.1091 1.27398 16.8841 1.27398C16.6621 1.27398 16.4746 1.35048 16.3216 1.50348C16.1686 1.65648 16.0921 1.84698 16.0921 2.07498C16.0921 2.30298 16.1686 2.49348 16.3216 2.64648C16.4746 2.79948 16.6621 2.87598 16.8841 2.87598Z" fill="white"/>
<path d="M20.3066 0.0499769H20.6981V3.19998H20.3066V2.81298C20.1116 3.10998 19.8281 3.25848 19.4561 3.25848C19.1411 3.25848 18.8726 3.14448 18.6506 2.91648C18.4286 2.68548 18.3176 2.40498 18.3176 2.07498C18.3176 1.74498 18.4286 1.46598 18.6506 1.23798C18.8726 1.00698 19.1411 0.891477 19.4561 0.891477C19.8281 0.891477 20.1116 1.03998 20.3066 1.33698V0.0499769ZM19.5056 2.88048C19.7336 2.88048 19.9241 2.80398 20.0771 2.65098C20.2301 2.49498 20.3066 2.30298 20.3066 2.07498C20.3066 1.84698 20.2301 1.65648 20.0771 1.50348C19.9241 1.34748 19.7336 1.26948 19.5056 1.26948C19.2806 1.26948 19.0916 1.34748 18.9386 1.50348C18.7856 1.65648 18.7091 1.84698 18.7091 2.07498C18.7091 2.30298 18.7856 2.49498 18.9386 2.65098C19.0916 2.80398 19.2806 2.88048 19.5056 2.88048Z" fill="white"/>
<path d="M22.7718 0.949977H23.1903L22.2723 3.33948C22.1763 3.59448 22.0413 3.78798 21.8673 3.91998C21.6963 4.05498 21.4983 4.11498 21.2733 4.09998V3.73548C21.5493 3.75648 21.7518 3.60348 21.8808 3.27648L21.9213 3.19098L20.9403 0.949977H21.3588L22.1238 2.71398L22.7718 0.949977Z" fill="white"/>
</svg>
